:SAMPLES-PER-SECOND 30
:FULLY-SPECIFIED
:DEGREES
587
root  -39.5273 39.5883 22.6635 -93.3089 -84.8415 109.133
RightUpLeg  -41.454 -19.5075 9.06657
RightLeg  18.638 0.212628 1.75507
RightFoot  4.03933 1.7048 -12.3608
RightToes  0.00048216 0.542163 -0.142577
Spine  60.4352 -4.29221 7.91292
Spine1  11.2175 1.8267 -6.11702
HEad  -29.194 -19.881 20.187
LeftShoulder1  11.4785 -23.5435 -36.2183
LeftArm  -15.2722 -19.6762 -25.9166
LeftForeArm  16.2179 -3.64709 -5.39698
LeftHand  -0.25398 0.0180481 5.50724
RightShoulder  3.79295 13.3633 15.7554
RightArm  -11.6186 62.0403 39.4439
RightForeArm  -3.56827 22.0133 5.11782
RightHand  0.0661697 -6.34526 -12.0188
LeftUpLeg  -38.2106 20.9493 -6.02442
LeftLeg  14.713 8.38751 1.00597
LeftFoot  2.19952 0.644996 -5.48208
LeftToes  1.06244e-005 4.65856e-005 -8.18505e-006
588
root  -39.2876 39.6591 22.0458 -79.4815 -84.5285 93.484
RightUpLeg  -38.5073 -17.9473 6.65852
RightLeg  17.5077 -3.56711 2.10519
RightFoot  4.20146 1.84498 -13.2357
RightToes  0.00048216 0.542163 -0.142577
Spine  58.9591 -4.27869 8.25183
Spine1  9.91319 1.50899 -5.66202
HEad  -29.3643 -21.4007 22.1886
LeftShoulder1  11.7415 -22.5699 -38.74
LeftArm  -11.6631 -13.2805 -26.0117
LeftForeArm  15.3741 -3.13931 -6.43416
LeftHand  -0.25398 0.0180481 5.50724
RightShoulder  4.22278 13.0552 19.0144
RightArm  -6.3437 56.0687 41.1438
RightForeArm  -4.02329 24.6429 5.4531
RightHand  0.110827 -6.77972 -12.1438
LeftUpLeg  -37.7817 19.7864 -6.94068
LeftLeg  22.131 7.90825 4.12094
LeftFoot  -0.596146 0.318104 -3.33108
LeftToes  1.06244e-005 4.65856e-005 -8.18505e-006
589
root  -39.0505 39.6892 21.4825 -69.5605 -84.3307 81.6318
RightUpLeg  -35.5541 -16.0915 4.71946
RightLeg  16.3999 -7.30777 2.63112
RightFoot  4.38925 1.95949 -13.8827
RightToes  0.00048216 0.542163 -0.142577
Spine  56.5187 -3.82343 9.03472
Spine1  10.4429 1.79271 -4.5233
HEad  -30.2798 -23.6819 23.4349
LeftShoulder1  12.3077 -22.1417 -41.5534
LeftArm  -7.94192 -8.58668 -25.6753
LeftForeArm  16.3049 -2.70249 -7.58414
LeftHand  -0.25398 0.0180481 5.50724
RightShoulder  4.58226 12.6934 22.0032
RightArm  -3.60418 50.5371 38.9107
RightForeArm  -5.13347 26.0384 5.85353
RightHand  0.0119573 -5.77077 -13.0107
LeftUpLeg  -36.5024 17.6106 -6.46846
LeftLeg  31.1807 11.265 7.60818
LeftFoot  -2.76017 0.0932717 -1.04131
LeftToes  1.06244e-005 4.65856e-005 -8.18505e-006
590
root  -38.803 39.723 20.9483 -61.9359 -83.9693 72.265
RightUpLeg  -32.7948 -14.1679 3.0205
RightLeg  14.8895 -10.742 3.4154
RightFoot  4.87848 2.10412 -14.4375
RightToes  0.00048216 0.542163 -0.142577
Spine  53.6063 -2.72957 9.24315
Spine1  12.2623 2.10153 -1.94749
HEad  -31.9216 -25.6555 23.7966
LeftShoulder1  12.9408 -21.6184 -44.8211
LeftArm  -5.07228 -4.96621 -25.1766
LeftForeArm  19.5107 -3.51483 -8.40177
LeftHand  -0.25398 0.0180481 5.50724
RightShoulder  4.62616 12.1573 23.3202
RightArm  -1.26794 45.7513 36.3523
RightForeArm  -6.81045 26.2073 5.97757
RightHand  -0.2521 -3.51818 -14.5278
LeftUpLeg  -34.9725 17.8744 -7.75807
LeftLeg  39.0926 12.2376 10.7868
LeftFoot  -4.53494 0.0195125 0.114913
LeftToes  1.06244e-005 4.65856e-005 -8.18505e-006
591
root  -38.5397 39.7325 20.4388 -55.6949 -83.3282 64.7394
RightUpLeg  -30.8322 -12.5091 1.71134
RightLeg  13.5062 -13.5945 4.08369
RightFoot  5.41596 2.25934 -14.986
RightToes  0.00048216 0.542163 -0.142577
Spine  51.7474 -2.82883 9.49345
Spine1  11.8438 1.95462 -1.94774
HEad  -32.5926 -26.5998 24.9508
LeftShoulder1  12.7286 -20.7545 -45.7095
LeftArm  -3.23113 0.357594 -25.0942
LeftForeArm  23.2847 -6.55056 -8.48816
LeftHand  -0.25398 0.0180481 5.50724
RightShoulder  5.12827 12.1991 26.5957
RightArm  1.81919 40.529 33.663
RightForeArm  -8.85444 25.965 6.02188
RightHand  -0.525937 -1.61622 -15.9499
LeftUpLeg  -33.1486 19.2846 -9.96987
LeftLeg  44.8693 11.011 11.88
LeftFoot  -6.02785 0.0255394 0.216148
LeftToes  1.06244e-005 4.65856e-005 -8.18505e-006
592
root  -38.2551 39.6606 19.9493 -48.5191 -82.7032 56.495
RightUpLeg  -29.6844 -11.172 1.11372
RightLeg  12.9249 -16.0356 4.29353
RightFoot  5.60672 2.36643 -15.5133
RightToes  0.00048216 0.542163 -0.142577
Spine  50.026 -2.61348 9.7922
Spine1  10.5262 1.66047 -0.735625
HEad  -32.4315 -28.0314 24.9628
LeftShoulder1  12.8048 -19.9928 -47.5337
LeftArm  -1.23154 5.19977 -24.4346
LeftForeArm  24.5558 -10.0824 -8.03587
LeftHand  -0.25398 0.0180481 5.50724
RightShoulder  5.34359 11.9931 28.4766
RightArm  4.18843 34.5072 31.991
RightForeArm  -10.9342 25.5852 6.03408
RightHand  -0.718946 -0.550056 -17.1537
LeftUpLeg  -30.7524 20.939 -12.0947
LeftLeg  48.6537 9.16188 11.4012
LeftFoot  -7.32495 0.0688589 -0.730094
LeftToes  1.06244e-005 4.65856e-005 -8.18505e-006
593
root  -37.9478 39.5417 19.4584 -39.95 -82.2273 46.8239
RightUpLeg  -28.6658 -9.98043 1.16714
RightLeg  12.4046 -18.2726 4.43667
RightFoot  5.79795 2.4841 -16.0943
RightToes  0.00048216 0.542163 -0.142577
Spine  47.5478 -2.25823 10.398
Spine1  10.5226 1.46938 1.06179
HEad  -32.5632 -29.7043 24.2611
LeftShoulder1  12.9186 -19.6273 -48.7356
LeftArm  -0.240654 8.361 -24.7432
LeftForeArm  23.51 -12.3899 -7.2816
LeftHand  -0.25398 0.0180481 5.50724
RightShoulder  5.30777 11.6214 29.1018
RightArm  5.65617 28.6305 30.9818
RightForeArm  -13.9086 24.8099 5.99136
RightHand  -0.913943 0.34561 -18.4699
LeftUpLeg  -27.4211 22.8827 -13.507
LeftLeg  50.4277 7.77861 10.4055
LeftFoot  -8.63993 0.109455 -2.47972
LeftToes  1.06244e-005 4.65856e-005 -8.18505e-006
594
root  -37.6106 39.4183 18.9567 -32.5335 -81.8291 38.2697
RightUpLeg  -27.468 -8.96731 1.5428
RightLeg  11.3097 -20.1449 4.96985
RightFoot  6.30752 2.68179 -16.8525
RightToes  0.00048216 0.542163 -0.142577
Spine  45.1938 -2.49957 11.354
Spine1  10.6829 1.39319 1.19939
HEad  -32.5767 -30.9281 23.928
LeftShoulder1  12.6907 -19.4599 -48.2221
LeftArm  -0.414475 10.8931 -25.8425
LeftForeArm  21.7808 -13.6628 -6.70949
LeftHand  -0.25398 0.0180481 5.50724
RightShoulder  5.63618 11.5708 31.4376
RightArm  7.64672 22.8531 28.8449
RightForeArm  -18.0888 23.9048 5.98835
RightHand  -1.11473 1.21051 -19.6358
LeftUpLeg  -23.1977 25.618 -14.2484
LeftLeg  49.9916 6.27693 8.40376
LeftFoot  -9.58197 0.133593 -4.88056
LeftToes  1.06244e-005 4.65856e-005 -8.18505e-006
595
root  -37.2147 39.2557 18.4353 -27.0385 -81.4989 31.8102
RightUpLeg  -26.5919 -8.0901 2.13249
RightLeg  10.1368 -21.7605 5.60536
RightFoot  6.843 2.90919 -17.7224
RightToes  0.00048216 0.542163 -0.142577
Spine  42.808 -2.54503 11.8996
Spine1  11.1602 1.22707 1.60827
HEad  -32.2156 -31.6981 23.7075
LeftShoulder1  12.4304 -19.1562 -47.8648
LeftArm  -0.115582 12.2378 -26.5593
LeftForeArm  19.7602 -14.8724 -6.27424
LeftHand  -0.25398 0.0180481 5.50724
RightShoulder  5.84481 11.3597 33.3767
RightArm  9.57325 17.3996 27.2056
RightForeArm  -21.3592 22.8223 6.06402
RightHand  -1.20114 1.5821 -20.0358
LeftUpLeg  -18.552 28.5179 -14.4722
LeftLeg  47.4377 4.00847 5.11286
LeftFoot  -9.57711 0.181076 -7.94615
LeftToes  1.06244e-005 4.65856e-005 -8.18505e-006
596
root  -36.7464 39.0557 17.8657 -23.2225 -81.0757 27.2076
RightUpLeg  -26.103 -7.27556 2.76969
RightLeg  8.99692 -23.2327 6.12192
RightFoot  7.33909 3.12868 -18.5296
RightToes  0.00048216 0.542163 -0.142577
Spine  40.4124 -2.3946 11.7454
Spine1  11.6748 0.805769 2.49541
HEad  -31.2129 -32.2994 23.7568
LeftShoulder1  12.2631 -18.7409 -48.1097
LeftArm  1.47261 12.7443 -26.3588
LeftForeArm  17.7712 -16.87 -5.63932
LeftHand  -0.25398 0.0180481 5.50724
RightShoulder  5.9473 11.1022 34.7569
RightArm  10.8449 12.1244 26.3931
RightForeArm  -22.4811 21.6511 6.32136
RightHand  -1.17133 1.48465 -19.813
LeftUpLeg  -13.7411 30.1696 -14.4901
LeftLeg  42.8371 1.74499 2.13868
LeftFoot  -9.72913 0.191354 -9.79857
LeftToes  1.06244e-005 4.65856e-005 -8.18505e-006
597
root  -36.2247 38.8694 17.2251 -21.754 -80.4901 24.7725
RightUpLeg  -25.3353 -6.7299 3.21683
RightLeg  7.41191 -24.1586 6.90997
RightFoot  8.18035 3.40458 -19.255
RightToes  0.00048216 0.542163 -0.142577
Spine  38.3291 -2.21005 10.6794
Spine1  12.0658 0.118697 3.5684
HEad  -29.7432 -33.0269 23.8411
LeftShoulder1  12.1841 -18.4456 -48.4488
LeftArm  2.88474 13.0162 -25.6496
LeftForeArm  16.6103 -19.4605 -4.76078
LeftHand  -0.25398 0.0180481 5.50724
RightShoulder  6.11342 11.0528 36.0115
RightArm  11.8467 6.84138 26.1224
RightForeArm  -22.194 20.6031 6.66039
RightHand  -1.16992 1.48485 -19.788
LeftUpLeg  -8.74921 30.2204 -14.5106
LeftLeg  36.5155 0.803861 0.9844
LeftFoot  -12.4021 0.0244834 -7.48473
LeftToes  1.06244e-005 4.65856e-005 -8.18505e-006
598
root  -35.6361 38.6746 16.4895 -22.0653 -79.815 23.5676
RightUpLeg  -24.0966 -6.70688 3.58187
RightLeg  5.88597 -24.4277 7.90047
RightFoot  9.21724 3.68946 -19.7733
RightToes  0.00048216 0.542163 -0.142577
Spine  36.9438 -2.11153 8.78844
Spine1  12.0914 -0.79798 4.5161
HEad  -28.0973 -33.9086 23.7876
LeftShoulder1  12.0257 -18.2778 -48.185
LeftArm  2.18105 13.3719 -24.9488
LeftForeArm  16.8118 -22.0645 -4.15025
LeftHand  -0.25398 0.0180481 5.50724
RightShoulder  6.32905 11.155 37.1599
RightArm  12.963 1.59458 26.5723
RightForeArm  -21.0731 19.8341 6.94209
RightHand  -1.19411 1.55495 -20.0115
LeftUpLeg  -4.01847 29.3731 -14.2957
LeftLeg  30.0504 1.90335 1.51792
LeftFoot  -17.7436 0.0198809 -1.73448
LeftToes  1.06244e-005 4.65856e-005 -8.18505e-006
599
root  -34.9405 38.4477 15.6377 -23.5549 -78.8576 23.0938
RightUpLeg  -22.8654 -7.36655 3.87213
RightLeg  5.26924 -24.1327 8.41312
RightFoot  9.89017 3.63486 -18.835
RightToes  0.00048216 0.542163 -0.142577
Spine  36.2283 -2.09424 6.12504
Spine1  11.8995 -1.95256 5.28753
HEad  -27.4514 -34.6933 24.4188
LeftShoulder1  11.708 -18.0539 -47.387
LeftArm  -0.743601 13.4409 -24.0763
LeftForeArm  17.5578 -24.4507 -4.27269
LeftHand  -0.25398 0.0180481 5.50724
RightShoulder  6.41532 11.1401 37.7719
RightArm  13.5345 -3.26084 28.2976
RightForeArm  -18.2732 19.3286 7.02837
RightHand  -1.0272 0.831094 -19.1443
LeftUpLeg  -0.812385 28.0806 -13.9472
LeftLeg  25.9979 4.45721 2.71676
LeftFoot  -22.6664 0.434602 3.13935
LeftToes  1.06244e-005 4.65856e-005 -8.18505e-006
600
root  -34.1508 38.2552 14.7113 -26.4371 -77.4251 24.0231
RightUpLeg  -21.9578 -9.40349 3.82053
RightLeg  5.53021 -21.6238 8.29289
RightFoot  10.3236 2.67392 -13.531
RightToes  0.00048216 0.542163 -0.142577
Spine  35.8686 -2.11159 2.76235
Spine1  11.9317 -3.27053 5.84914
HEad  -27.6372 -35.6547 25.7027
LeftShoulder1  11.3381 -17.709 -46.6212
LeftArm  -4.49421 12.8505 -22.7921
LeftForeArm  16.9663 -26.6965 -4.83091
LeftHand  -0.25398 0.0180481 5.50724
RightShoulder  6.35598 10.9613 37.8985
RightArm  12.8067 -7.33177 31.014
RightForeArm  -13.3497 19.0667 6.84263
RightHand  -0.597114 -1.17386 -16.0584
LeftUpLeg  0.194642 26.5663 -13.9518
LeftLeg  25.456 6.72939 3.83302
LeftFoot  -24.9046 0.742738 5.02156
LeftToes  1.06244e-005 4.65856e-005 -8.18505e-006
601
root  -33.346 38.1361 13.8137 -29.9737 -75.8837 25.8622
RightUpLeg  -21.5216 -14.9651 3.95123
RightLeg  6.71076 -13.0721 7.91012
RightFoot  10.9895 0.300671 -1.18094
RightToes  0.00048216 0.542163 -0.142577
Spine  35.5427 -2.17326 -0.662295
Spine1  12.1921 -4.41613 5.84815
HEad  -28.2142 -36.8655 26.9603
LeftShoulder1  11.0504 -17.393 -46.1123
LeftArm  -8.42574 12.027 -21.5991
LeftForeArm  14.546 -28.8405 -5.4545
LeftHand  -0.25398 0.0180481 5.50724
RightShoulder  6.3275 10.8014 38.1799
RightArm  11.2851 -10.5114 33.4424
RightForeArm  -8.00612 19.016 6.50684
RightHand  -0.198846 -3.60826 -11.7582
LeftUpLeg  -0.124605 25.6262 -14.134
LeftLeg  26.9004 7.63666 4.53735
LeftFoot  -25.0624 0.795016 5.35111
LeftToes  1.06244e-005 4.65856e-005 -8.18505e-006
